<?xml version="1.0" standalone="no"?>
<!DOCTYPE svg PUBLIC "-//W3C//DTD SVG 20010904//EN"
 "http://www.w3.org/TR/2001/REC-SVG-20010904/DTD/svg10.dtd">
<svg version="1.0" xmlns="http://www.w3.org/2000/svg"
 width="1277.000000pt" height="1280.000000pt" viewBox="0 0 1277.000000 1280.000000"
 preserveAspectRatio="xMidYMid meet">
<metadata>
Created by potrace 1.15, written by Peter Selinger 2001-2017
</metadata>
<g transform="translate(0.000000,1280.000000) scale(0.100000,-0.100000)"
fill="#ff5722" stroke="none">
<path d="M3865 12793 c-349 -22 -731 -95 -1045 -199 -251 -84 -613 -250 -827
-381 -961 -584 -1631 -1506 -1887 -2596 -108 -456 -133 -987 -70 -1452 103
-757 394 -1437 870 -2035 59 -74 196 -223 303 -331 199 -198 343 -321 551
-466 1065 -749 2439 -941 3680 -514 171 58 301 113 483 204 l186 93 2428
-2429 c1336 -1336 2465 -2461 2510 -2501 90 -80 163 -123 268 -157 58 -20 90
-24 190 -23 102 0 132 4 201 27 137 45 182 82 558 455 380 379 426 434 473
576 23 69 27 98 27 201 1 100 -3 132 -23 190 -34 105 -77 178 -157 268 -40 45
-1163 1172 -2496 2505 l-2424 2423 101 202 c268 534 405 1054 435 1644 32 649
-91 1300 -358 1888 -549 1211 -1671 2096 -2967 2340 -335 63 -702 88 -1010 68z"/>
</g>
</svg>
